<?xml version="1.0" standalone="no"?>
<!DOCTYPE svg PUBLIC "-//W3C//DTD SVG 20010904//EN"
 "http://www.w3.org/TR/2001/REC-SVG-20010904/DTD/svg10.dtd">
<svg version="1.0" xmlns="http://www.w3.org/2000/svg"
 width="500.000000pt" height="500.000000pt" viewBox="0 0 500.000000 500.000000"
 preserveAspectRatio="xMidYMid meet">

<g transform="translate(0.000000,500.000000) scale(0.100000,-0.100000)"
fill="#000000" stroke="none">
<path d="M2724 3009 c-5 -8 -10 -59 -11 -114 -3 -101 -20 -184 -46 -219 -10
-14 -25 -19 -53 -18 -21 1 -41 -4 -45 -10 -7 -12 -63 18 -129 69 l-35 27 30
-33 c30 -33 169 -131 186 -131 5 0 7 11 3 24 -4 19 -1 26 15 31 12 3 21 10 21
14 0 5 12 21 27 37 15 16 30 45 35 64 5 24 6 14 3 -30 -5 -58 -45 -217 -74
-294 -7 -16 -10 -30 -9 -32 2 -1 18 4 36 11 28 12 32 19 32 50 0 20 6 69 13
108 l12 72 5 -100 5 -99 42 38 41 38 -19 56 c-10 30 -19 72 -19 92 0 20 -14
89 -30 154 -17 66 -29 120 -27 123 6 5 31 -72 54 -167 35 -143 74 -260 86
-260 7 0 39 13 73 29 60 30 60 30 56 68 -4 29 -7 33 -12 19 -4 -11 -7 14 -7
55 1 125 -22 195 -37 115 -13 -71 -61 -51 -137 57 -27 38 -51 86 -55 106 -9
52 -19 67 -30 50z m208 -373 c-16 -39 -33 -80 -37 -91 -7 -17 -9 -15 -16 15
-12 54 9 118 54 163 21 21 22 21 25 3 2 -11 -9 -51 -26 -90z"/>
<path d="M2958 2977 c-3 -19 -2 -25 4 -19 6 6 8 18 6 28 -3 14 -5 12 -10 -9z"/>
<path d="M2892 2961 c4 -13 18 -16 19 -4 0 4 -5 9 -11 12 -7 2 -11 -2 -8 -8z"/>
<path d="M2341 2854 c0 -11 3 -14 6 -6 3 7 2 16 -1 19 -3 4 -6 -2 -5 -13z"/>
<path d="M2000 2575 c0 -8 7 -15 16 -15 14 0 14 3 4 15 -7 8 -14 15 -16 15 -2
0 -4 -7 -4 -15z"/>
<path d="M2925 2519 c-74 -38 -245 -141 -251 -151 -6 -9 35 12 124 65 18 10
35 17 38 15 2 -3 -87 -58 -198 -122 -111 -65 -229 -135 -262 -157 -33 -21 -68
-39 -79 -39 -29 0 -56 -18 -72 -50 -26 -51 -13 -55 37 -10 39 36 61 38 82 8
25 -36 20 -70 -15 -101 -47 -41 -27 -45 34 -7 l54 32 -30 59 -30 60 24 25 c27
29 177 124 195 124 6 0 17 7 24 15 17 21 63 19 83 -3 21 -23 22 -66 1 -86 -21
-22 -80 -21 -93 2 -6 9 -11 12 -11 5 0 -15 48 -53 68 -53 8 0 34 12 57 27 l43
27 -15 35 c-8 20 -23 43 -33 52 -18 15 -18 18 -4 30 9 7 39 13 66 14 40 0 53
-4 64 -21 13 -20 12 -25 -13 -54 -26 -31 -16 -27 135 50 89 46 162 88 162 93
0 5 -16 28 -36 52 -26 32 -34 50 -29 65 6 18 2 20 -37 20 -24 -1 -61 -10 -83
-21z m89 -45 c9 -3 16 -10 16 -16 0 -5 -5 -6 -12 -2 -7 4 -8 3 -4 -5 4 -6 11
-9 16 -6 5 3 11 1 15 -5 11 -18 -4 -45 -34 -58 -25 -11 -34 -11 -61 3 -29 15
-31 20 -26 48 3 17 12 35 19 39 14 9 49 10 71 2z"/>
<path d="M2983 2464 c3 -4 -1 -13 -9 -22 -11 -10 -12 -18 -5 -25 14 -14 30 1
36 31 3 15 -1 22 -12 22 -9 0 -14 -3 -10 -6z"/>
<path d="M2320 2494 c0 -6 -9 -20 -20 -32 -15 -16 -17 -22 -7 -22 8 0 22 9 32
20 14 16 16 23 7 32 -7 7 -12 8 -12 2z"/>
<path d="M2583 2443 c-12 -50 -8 -76 11 -70 12 4 19 117 7 117 -4 0 -12 -21
-18 -47z"/>
<path d="M1895 2390 c-7 -12 2 -30 16 -30 12 0 12 27 0 35 -5 3 -12 1 -16 -5z"/>
<path d="M2095 2368 c18 -45 18 -48 2 -48 -7 0 -13 -12 -12 -27 0 -26 -3 -28
-40 -28 -22 0 -51 4 -65 9 -14 5 11 -19 54 -51 48 -36 87 -58 97 -56 20 6 59
-13 59 -28 0 -6 -8 -8 -17 -5 -15 6 -15 5 1 -13 18 -20 19 -20 72 17 30 20 54
42 54 48 0 6 -28 35 -62 65 -35 29 -84 76 -111 104 l-47 50 15 -37z m85 -99
c0 -6 -4 -7 -10 -4 -5 3 -10 11 -10 16 0 6 5 7 10 4 6 -3 10 -11 10 -16z m65
-52 c36 -23 44 -37 23 -37 -17 0 -136 18 -167 26 l-25 5 30 20 c36 24 89 19
139 -14z"/>
<path d="M2334 2336 c49 -25 93 -49 99 -55 6 -6 19 -2 38 12 l29 21 -42 12
c-55 15 -167 44 -193 50 -11 3 20 -15 69 -40z"/>
<path d="M3120 2371 c-66 -14 -350 -175 -350 -199 0 -9 -46 -38 -284 -184 -44
-26 -87 -46 -95 -43 -25 8 -75 -29 -88 -63 l-11 -31 36 15 c82 34 410 217 667
372 97 58 175 118 175 133 0 10 1 10 -50 0z m-265 -197 c-23 -18 -144 -80
-133 -69 4 4 36 25 70 46 63 38 101 52 63 23z"/>
<path d="M1844 2341 c3 -5 16 -11 28 -14 22 -6 22 -5 4 8 -22 17 -40 20 -32 6z"/>
<path d="M2290 2324 c8 -10 21 -25 27 -32 7 -7 16 -24 19 -38 5 -20 10 -23 33
-18 14 4 29 9 32 13 3 3 -24 26 -60 50 -36 24 -59 36 -51 25z"/>
<path d="M2270 2030 c1 -22 2 -23 11 -7 5 9 17 17 24 17 8 0 15 4 15 10 0 5
-11 9 -25 8 -20 -2 -25 -8 -25 -28z"/>
</g>
</svg>
