<?xml version="1.0" standalone="no"?>
<!DOCTYPE svg PUBLIC "-//W3C//DTD SVG 20010904//EN"
 "http://www.w3.org/TR/2001/REC-SVG-20010904/DTD/svg10.dtd">
<svg version="1.0" xmlns="http://www.w3.org/2000/svg"
 width="500.000000pt" height="500.000000pt" viewBox="0 0 500.000000 500.000000"
 preserveAspectRatio="xMidYMid meet">

<g transform="translate(0.000000,500.000000) scale(0.100000,-0.100000)"
fill="#000000" stroke="none">
<path d="M3100 3430 c-11 -11 -20 -25 -20 -32 0 -6 9 -3 20 7 21 19 28 7 8
-13 -7 -7 -8 -12 -2 -12 11 0 45 34 58 58 12 21 -42 14 -64 -8z"/>
<path d="M3017 3424 c5 -13 3 -16 -10 -11 -8 3 -21 -1 -27 -9 -11 -13 -7 -18
13 -15 14 2 7 -20 -8 -25 -8 -4 -15 -12 -15 -20 0 -8 -4 -14 -10 -14 -5 0 -10
9 -10 19 0 25 -18 37 -33 22 -9 -9 -8 -11 6 -6 22 9 23 -17 2 -35 -8 -7 -15
-19 -15 -26 0 -10 -7 -13 -25 -8 -20 5 -25 2 -25 -14 0 -11 7 -25 15 -32 8 -7
15 -10 15 -6 0 3 9 -2 19 -11 16 -13 17 -21 10 -42 -6 -14 -14 -28 -18 -31 -4
-3 -2 -15 4 -27 l11 -22 30 24 c27 22 29 27 27 84 -2 62 4 72 35 52 12 -7 12
-12 1 -29 -11 -17 -11 -24 -1 -34 16 -16 15 -38 -3 -59 -11 -11 -14 -25 -9
-44 8 -34 30 -42 54 -20 19 17 20 17 38 -5 13 -16 25 -21 37 -17 14 6 16 15
11 47 -5 30 -3 40 7 40 8 0 22 9 32 20 18 20 18 21 -12 52 -25 25 -35 29 -45
20 -11 -9 -20 -5 -40 19 l-27 29 30 22 c16 12 29 25 29 29 0 5 -23 5 -51 2
-42 -5 -51 -3 -47 8 2 8 22 17 44 20 21 3 31 7 20 8 -13 1 -16 6 -11 19 5 14
4 15 -6 5 -20 -20 -41 -16 -34 6 3 11 1 22 -4 26 -7 4 -8 -1 -4 -11z m87 -240
c22 -21 3 -56 -27 -52 -25 3 -34 32 -17 53 16 19 25 19 44 -1z"/>
<path d="M3352 3262 c-12 -18 -22 -40 -22 -48 0 -15 -39 -76 -52 -82 -5 -2 -8
-10 -8 -18 0 -9 -4 -13 -8 -10 -5 3 -17 -20 -27 -51 -15 -43 -21 -52 -29 -41
-12 16 -116 31 -133 20 -18 -12 -21 -37 -5 -54 12 -14 12 -21 2 -33 -18 -22
-4 -49 22 -42 13 4 29 0 39 -9 16 -15 16 -18 -7 -61 -13 -25 -24 -56 -24 -67
0 -12 -6 -28 -12 -35 -11 -11 -10 -12 2 -6 13 8 13 6 2 -7 -13 -16 -19 -16
-59 -2 -21 8 -55 14 -103 18 -19 2 -39 4 -44 5 -5 0 -3 7 3 15 14 17 80 19
101 3 13 -10 13 -10 2 5 -8 10 -9 19 -3 22 5 3 11 0 14 -6 3 -10 7 -10 20 0 9
7 28 17 43 21 l26 7 -41 27 c-23 15 -40 22 -39 16 2 -6 -3 -14 -11 -17 -10 -3
-11 0 -5 9 7 12 5 12 -9 0 -18 -14 -13 -36 5 -25 6 4 8 2 5 -3 -4 -6 -27 -14
-52 -17 -24 -4 -47 -11 -50 -17 -4 -5 -13 -9 -21 -9 -10 0 -6 8 12 25 15 14
31 25 35 25 5 0 32 23 61 50 49 47 52 51 35 64 -12 9 -14 16 -7 21 15 9 3 24
-20 22 -23 -2 -30 -16 -25 -54 3 -21 -2 -33 -17 -42 -11 -7 -17 -8 -13 -2 3 6
0 14 -9 17 -8 3 -12 12 -9 20 7 19 21 18 26 -3 3 -12 5 -9 5 7 0 14 3 42 7 63
10 48 -9 50 -32 2 -9 -19 -21 -31 -26 -28 -5 3 -7 0 -5 -8 3 -8 -4 -31 -14
-51 -30 -57 -62 -76 -42 -24 3 9 9 14 14 11 4 -2 7 10 8 27 0 17 6 34 13 39 7
4 9 15 5 24 -3 10 -1 24 5 31 6 7 7 18 4 25 -8 13 -44 -54 -45 -83 0 -9 -5
-18 -10 -20 -6 -2 -12 -13 -13 -26 0 -12 -7 -23 -14 -23 -7 -1 -19 -2 -25 -3
-7 -1 -20 7 -29 18 -12 15 -18 16 -24 6 -5 -8 -4 -11 3 -6 6 3 16 -2 21 -13
14 -25 14 -31 1 -31 -5 0 -10 7 -10 15 0 8 -4 15 -10 15 -13 0 -13 -16 1 -43
10 -22 10 -22 -10 1 -10 12 -24 22 -30 22 -6 0 -11 6 -11 14 0 8 -5 18 -11 22
-7 4 -9 -2 -7 -17 2 -16 -2 -24 -12 -25 -8 -1 -19 -2 -24 -3 -5 0 -3 -7 3 -15
20 -23 -6 -30 -45 -11 -19 9 -32 20 -29 26 4 5 -3 9 -14 9 -29 0 -33 15 -11
35 16 15 17 19 5 31 -18 19 -31 18 -15 -1 12 -15 5 -39 -10 -30 -16 10 -20
-13 -4 -25 9 -9 11 -16 4 -20 -6 -4 -2 -14 10 -28 20 -21 20 -22 1 -22 -10 0
-21 -7 -25 -15 -6 -16 -46 -21 -46 -6 0 5 -12 11 -26 13 l-26 3 26 28 c27 29
34 43 16 32 -5 -3 -10 1 -10 9 0 12 -10 16 -34 16 -19 0 -37 4 -41 9 -7 13
-55 -13 -76 -41 -14 -18 -20 -20 -32 -10 -23 20 -73 -4 -86 -40 -18 -52 -14
-68 19 -74 17 -4 27 -11 23 -17 -12 -20 -11 -57 2 -57 7 0 15 -7 19 -15 8 -22
42 -18 59 5 11 16 21 19 40 15 19 -5 29 -1 43 20 49 68 47 67 77 56 15 -6 27
-16 26 -23 0 -10 -2 -10 -6 0 -7 18 -23 15 -24 -5 0 -14 -2 -13 -9 5 -13 30
-24 28 -16 -4 8 -30 -1 -64 -16 -64 -5 0 -23 -10 -40 -21 -23 -17 -27 -24 -16
-30 8 -5 9 -9 2 -9 -7 0 -11 -11 -10 -25 0 -14 4 -25 7 -25 15 0 3 -50 -11
-51 -10 0 -11 -2 -2 -6 6 -2 10 -9 6 -14 -3 -5 -3 -17 0 -27 8 -25 56 -25 84
1 12 11 22 15 22 9 0 -7 -4 -12 -10 -12 -6 0 -6 -9 1 -26 5 -15 7 -29 4 -32
-3 -3 -5 -1 -5 4 0 5 -9 10 -20 10 -13 0 -21 -9 -25 -28 -4 -15 -12 -28 -20
-28 -16 0 -14 30 3 48 7 8 9 19 5 25 -5 8 -9 7 -11 -5 -3 -15 -8 -15 -59 3
-67 23 -64 22 -57 6 3 -8 -2 -20 -11 -27 -8 -7 -15 -20 -15 -30 0 -9 -18 -30
-40 -45 -22 -15 -37 -32 -34 -37 3 -5 16 0 28 11 26 25 61 29 52 6 -4 -13 -2
-14 14 -5 11 6 20 8 20 6 0 -3 -14 -13 -31 -22 -18 -9 -28 -11 -24 -4 6 9 2 9
-14 0 -12 -6 -30 -8 -41 -5 -10 3 -21 1 -25 -5 -3 -6 -11 -7 -17 -4 -6 4 -8 2
-5 -3 4 -6 0 -16 -8 -23 -8 -7 -12 -17 -9 -22 4 -6 -2 -8 -12 -6 -11 2 -18 11
-16 19 1 9 -3 7 -13 -5 -8 -11 -15 -16 -15 -10 0 5 -10 -3 -23 -17 -12 -14
-27 -24 -33 -22 -9 3 -101 -51 -114 -68 -10 -13 -50 -29 -50 -21 0 16 41 62
51 57 5 -4 17 -1 26 4 10 6 13 11 8 11 -6 0 -11 9 -12 20 -1 11 2 18 7 15 4
-3 6 4 3 15 -4 16 -2 19 11 14 9 -3 16 -4 16 -1 0 3 -6 7 -14 10 -10 4 -22 -8
-36 -36 -21 -41 -76 -95 -87 -84 -3 3 11 26 31 50 38 46 43 57 26 57 -6 0 -9
-4 -8 -9 5 -15 -63 -92 -74 -85 -6 4 -8 3 -5 -3 4 -6 -9 -27 -28 -47 -19 -21
-35 -44 -35 -52 0 -9 -5 -13 -12 -9 -7 3 -3 -2 10 -11 32 -24 27 -39 -18 -59
-22 -10 -46 -25 -53 -33 -9 -12 -5 -11 15 2 15 10 31 15 35 13 5 -3 19 1 32 8
21 11 27 10 41 -4 29 -27 42 -59 27 -64 -6 -3 -2 -6 10 -6 57 -2 14 -47 -89
-93 -59 -27 -92 -64 -86 -95 3 -14 7 -12 20 12 9 17 27 36 40 42 44 22 101 43
106 39 2 -3 -18 -26 -46 -53 -55 -54 -85 -112 -79 -158 3 -33 8 -26 27 45 10
35 31 64 98 132 77 80 87 87 102 73 23 -21 47 -19 60 5 9 16 18 19 53 14 58
-6 81 12 67 53 -12 34 -63 63 -113 63 -27 1 -29 2 -14 11 9 5 17 16 17 24 0
18 54 46 100 52 19 3 49 14 65 25 25 16 26 19 8 15 -13 -3 -23 -4 -23 -2 0 2
35 25 78 50 57 35 72 41 57 24 -17 -21 -16 -21 10 2 17 15 43 34 58 44 26 16
30 17 44 3 17 -18 10 -38 -13 -38 -8 0 -14 -4 -14 -10 0 -5 -3 -9 -7 -8 -12 3
-93 -22 -93 -28 0 -4 7 -4 15 0 8 3 15 1 15 -4 0 -11 -18 -22 -39 -24 -28 -3
-91 -27 -91 -36 0 -12 39 -20 46 -9 3 5 11 9 17 9 7 0 -1 -9 -18 -20 -16 -11
-24 -20 -17 -20 7 0 12 -14 12 -34 0 -19 4 -37 9 -41 6 -3 7 9 4 30 -7 42 -1
43 46 8 20 -16 42 -26 49 -25 8 2 20 -2 28 -9 9 -8 14 -8 14 -1 0 6 -18 17
-40 23 -44 14 -79 44 -64 58 5 5 20 11 34 14 22 4 21 4 -6 6 -41 1 -52 27 -16
36 16 4 28 2 30 -4 6 -19 40 -32 48 -19 4 6 3 8 -3 5 -16 -10 -39 21 -26 34 8
8 13 7 18 -2 6 -8 4 -10 -5 -4 -9 5 -11 4 -6 -4 4 -6 11 -9 16 -6 5 3 11 1 15
-5 4 -6 15 -4 31 6 13 9 22 19 19 22 -3 3 -13 -3 -24 -12 -12 -11 -21 -14 -26
-7 -3 6 -1 11 6 11 6 0 9 8 6 20 -6 23 18 40 58 40 22 0 25 -4 23 -29 -1 -17
5 -38 15 -49 9 -10 17 -27 17 -38 0 -32 18 -44 47 -31 19 8 26 8 32 -2 6 -9
17 -7 47 9 42 24 41 21 -15 -45 l-26 -30 31 28 c17 15 33 24 37 20 4 -3 8 2 9
13 0 10 2 33 4 49 1 17 -4 39 -11 51 -8 13 -11 36 -8 61 l5 39 -38 -4 c-22 -2
-50 -14 -63 -26 -23 -20 -24 -20 -16 -1 15 40 16 59 1 27 -9 -18 -20 -31 -26
-27 -5 3 -10 1 -10 -5 0 -6 -4 -9 -9 -6 -5 3 -7 15 -4 27 4 14 8 17 13 8 5 -7
8 -3 7 12 0 13 8 41 17 62 9 22 13 36 7 33 -19 -12 -20 11 -1 27 17 15 19 14
23 -1 4 -13 5 -12 6 4 1 17 -7 23 -36 29 -30 6 -34 9 -19 14 11 4 30 3 44 -3
21 -10 23 -16 20 -63 -3 -29 -2 -50 2 -48 3 2 41 5 84 6 76 2 77 2 71 26 -11
44 10 63 70 63 52 0 55 1 55 25 0 29 -5 29 -83 11 -31 -7 -60 -10 -62 -5 -5 6
56 23 118 31 18 3 18 4 -2 27 -14 16 -21 39 -22 65 0 23 -2 55 -5 73 -3 25 1
35 16 43 17 9 20 7 21 -12 1 -38 9 -72 18 -78 5 -3 7 -20 6 -38 -2 -40 7 -47
38 -27 24 15 37 12 37 -11 0 -7 -15 -14 -37 -16 -20 -2 -38 -9 -41 -16 -3 -9
3 -10 24 -2 15 6 33 9 40 6 7 -3 15 2 18 10 3 9 20 14 46 14 25 0 39 -4 35
-10 -3 -5 -17 -10 -31 -10 -13 0 -24 -5 -24 -11 0 -6 9 -9 20 -6 12 3 20 1 19
-6 -4 -32 1 -38 21 -27 12 6 30 8 42 4 16 -5 19 -3 12 7 -4 8 10 1 32 -15 104
-79 126 -96 120 -96 -3 0 8 -13 26 -29 18 -16 34 -26 36 -23 1 4 19 6 40 4 35
-3 40 -1 52 27 7 17 19 31 26 31 8 0 14 7 14 15 0 9 -9 15 -21 15 -12 0 -42 7
-68 15 -25 8 -63 17 -84 20 -24 4 -35 10 -31 17 5 7 2 9 -9 5 -9 -3 -19 -2
-22 2 -2 5 4 11 15 14 18 5 20 12 17 89 -4 87 -17 128 -43 128 -12 0 -14 5 -9
18 4 9 10 27 12 40 7 28 -17 30 -24 2 -3 -11 -9 -20 -14 -20 -17 0 -49 35 -49
53 0 10 -5 15 -10 12 -19 -12 -60 -15 -60 -5 0 5 -10 10 -23 10 -14 0 -24 6
-24 15 0 8 4 15 9 15 4 0 8 -5 8 -12 0 -6 3 -8 6 -5 4 3 15 2 25 -4 13 -7 19
-6 19 2 0 7 7 8 18 4 9 -3 37 -10 62 -15 40 -7 49 -5 88 21 24 16 47 27 52 24
5 -3 41 10 81 28 57 27 67 35 50 40 -11 3 -21 1 -21 -4 0 -5 -11 -9 -25 -9
-14 0 -25 -4 -25 -10 0 -5 -7 -10 -15 -10 -9 0 -18 -7 -21 -15 -4 -8 -11 -15
-18 -15 -14 1 95 99 111 100 6 0 13 -3 16 -7 2 -5 2 -3 1 4 -3 11 20 23 54 29
8 1 22 10 31 18 11 10 26 14 37 10 11 -3 15 -2 9 3 -18 14 -15 32 5 38 11 4
20 11 20 16 0 5 6 9 14 9 8 0 17 4 20 9 8 12 -57 8 -66 -4 -4 -5 -13 -10 -20
-11 -37 -2 -78 -18 -78 -30 0 -7 -5 -16 -12 -20 -7 -4 -8 -3 -4 5 6 8 1 10
-18 5 -24 -6 -26 -4 -22 27 2 18 11 38 20 44 9 7 16 19 16 28 0 9 11 24 24 33
15 9 23 21 19 30 -3 8 3 26 13 42 29 42 43 70 37 75 -2 3 0 14 6 25 14 27 -4
81 -27 79 -10 0 -27 -16 -40 -35z m-39 -177 c-3 -9 -8 -14 -10 -11 -3 3 -2 9
2 15 9 16 15 13 8 -4z m-23 -193 c0 -4 -13 -15 -29 -25 -16 -10 -31 -27 -33
-40 -2 -12 -9 -21 -16 -19 -6 1 -12 -4 -12 -11 0 -13 -52 -57 -66 -57 -4 0 7
13 24 29 16 16 33 39 37 50 3 12 11 21 16 21 5 0 9 8 9 17 0 9 3 13 6 10 4 -3
18 3 32 13 27 22 32 24 32 12z m-402 -63 c-17 -21 -33 -37 -35 -35 -8 7 10 37
28 47 11 5 19 17 19 25 0 8 4 12 10 9 6 -4 -4 -23 -22 -46z m-80 9 c1 -23 -2
-28 -8 -18 -12 19 -13 50 -2 50 5 0 9 -14 10 -32z m-391 6 c-3 -3 -12 -4 -19
-1 -8 3 -5 6 6 6 11 1 17 -2 13 -5z m283 -14 c8 -5 11 -10 5 -10 -5 0 -17 5
-25 10 -8 5 -10 10 -5 10 6 0 17 -5 25 -10z m-30 -29 c0 -10 -30 -24 -37 -17
-3 3 -2 9 2 15 8 13 35 15 35 2z m-55 -73 c5 4 5 2 1 -5 -4 -7 -22 -12 -41
-11 -30 1 -32 3 -17 14 10 8 23 9 33 3 9 -4 20 -5 24 -1z m-15 -48 c13 -9 11
-13 -10 -30 -14 -10 -27 -14 -29 -9 -1 6 -9 2 -17 -8 -30 -40 -6 -45 37 -8 16
13 36 22 44 19 21 -8 10 -21 -35 -44 -21 -11 -43 -27 -48 -36 -13 -23 -54 -1
-77 42 -10 19 -22 34 -27 34 -4 0 -8 5 -8 10 0 6 11 8 26 4 19 -5 25 -4 20 5
-4 6 -2 11 3 11 6 0 11 -5 11 -12 0 -6 8 -4 20 7 10 9 26 15 35 12 8 -4 15 -2
15 3 0 13 21 12 40 0z m278 -18 c2 -7 -2 -10 -12 -6 -9 3 -16 11 -16 16 0 13
23 5 28 -10z m87 -24 c54 -35 43 -47 -17 -18 -23 11 -30 11 -45 -1 -15 -12
-16 -12 -10 4 4 10 7 23 7 28 0 16 29 10 65 -13z m-252 -4 c-5 -13 -7 -13 -14
-2 -6 9 -9 6 -10 -12 0 -14 -3 -19 -6 -12 -10 24 -22 11 -16 -18 4 -23 2 -30
-10 -30 -9 0 -23 -7 -31 -16 -9 -8 -16 -11 -16 -5 0 6 -7 11 -15 11 -26 0 -2
31 52 67 54 35 75 41 66 17z m127 6 c0 -5 -2 -10 -4 -10 -3 0 -8 5 -11 10 -3
6 -1 10 4 10 6 0 11 -4 11 -10z m-43 -24 c-3 -8 0 -17 7 -19 7 -3 22 -33 32
-66 10 -33 22 -61 27 -61 4 0 7 -4 7 -9 0 -4 -18 -8 -41 -8 -24 0 -36 3 -28 8
10 6 10 10 0 23 -7 9 -11 22 -8 31 4 8 2 17 -4 20 -5 4 -9 12 -8 18 1 7 -1 20
-5 30 -10 20 -1 47 15 47 6 0 9 -6 6 -14z m71 -21 c6 -14 15 -25 20 -25 5 0
14 -18 21 -40 8 -29 17 -40 31 -40 13 0 17 5 14 14 -10 26 18 30 37 5 21 -28
17 -56 -13 -81 -19 -17 -21 -17 -54 8 -19 15 -34 31 -34 37 0 10 -30 81 -51
119 -12 24 -11 28 4 28 8 0 19 -11 25 -25z m79 -17 c24 -34 19 -53 -10 -42
-15 6 -19 12 -16 30 0 4 -5 10 -11 14 -12 8 -6 30 8 30 4 0 17 -15 29 -32z
m-427 -67 c-6 -12 -15 -21 -20 -21 -6 0 -10 -7 -10 -15 0 -8 -9 -19 -20 -25
-29 -16 -25 -4 18 45 39 45 51 51 32 16z m48 -1 c-7 -10 -14 -17 -17 -15 -4 4
18 35 25 35 2 0 -1 -9 -8 -20z m-148 -25 c-7 -9 -15 -13 -17 -11 -7 7 7 26 19
26 6 0 6 -6 -2 -15z m270 -10 c-14 -8 -29 -14 -35 -14 -5 0 1 6 15 14 14 8 30
14 35 14 6 0 -1 -6 -15 -14z m-356 -123 c2 -4 -4 -9 -15 -9 -11 -1 -17 2 -14
8 7 11 22 12 29 1z m-54 -22 c0 -5 10 -11 23 -13 16 -3 14 -5 -8 -4 -16 0 -37
-3 -46 -7 -23 -10 -32 9 -14 28 15 15 45 12 45 -4z m95 -21 c-3 -4 2 -12 11
-17 13 -7 11 -10 -14 -15 -16 -3 -42 -9 -57 -13 -20 -5 -26 -4 -21 5 4 6 20
11 37 11 32 0 38 16 12 35 -16 12 -14 12 10 8 15 -3 24 -9 22 -14z m898 -36
c14 -8 7 -19 -27 -37 -34 -18 -35 -18 -61 2 l-26 21 28 15 c24 13 61 13 86 -1z
m-843 -14 c0 -5 -4 -9 -10 -9 -5 0 -10 7 -10 16 0 8 5 12 10 9 6 -3 10 -10 10
-16z m-47 -11 c12 10 16 9 21 -5 5 -13 -2 -26 -25 -47 -21 -19 -34 -25 -37
-17 -2 7 4 19 14 26 18 14 18 14 -3 15 -16 0 -23 6 -23 20 0 17 3 19 19 8 15
-9 23 -9 34 0z m-193 -2 c0 -2 -20 -16 -45 -30 -25 -13 -43 -21 -40 -15 4 5
23 18 43 29 41 21 42 22 42 16z m90 -21 c0 -8 -5 -17 -10 -20 -6 -4 -8 -11 -5
-16 3 -5 -2 -6 -11 -2 -10 4 -15 2 -11 -3 6 -11 -83 -75 -133 -94 -19 -8 -51
-24 -70 -37 -19 -13 -40 -23 -46 -23 -7 0 -14 -3 -16 -7 -6 -15 -90 -65 -96
-58 -10 10 33 39 132 89 49 26 82 46 72 46 -13 0 -11 5 11 25 31 28 36 32
-134 -79 -40 -25 -80 -49 -88 -52 -19 -8 -19 10 0 26 8 7 15 21 15 31 0 18 -1
19 -25 3 -14 -9 -25 -14 -25 -10 0 20 69 45 133 47 20 0 23 15 5 22 -7 3 -3 6
10 6 13 1 21 4 19 9 -3 4 12 15 32 25 l36 19 -29 -31 c-17 -17 -27 -31 -24
-31 3 0 43 25 88 55 79 53 108 66 95 45 -3 -5 7 -2 24 7 16 10 27 21 25 25 -3
4 2 5 10 2 9 -3 16 -12 16 -19z m267 19 c-3 -3 -12 -4 -19 -1 -8 3 -5 6 6 6
11 1 17 -2 13 -5z m738 -14 c-3 -5 -11 -10 -16 -10 -6 0 -7 5 -4 10 3 6 11 10
16 10 6 0 7 -4 4 -10z m-865 -27 c-1 -15 -30 -46 -37 -40 -3 4 2 16 12 27 19
21 25 24 25 13z"/>
<path d="M2502 2628 c-15 -15 -15 -25 1 -31 7 -3 12 4 12 19 0 13 0 24 0 24
-1 0 -6 -5 -13 -12z"/>
<path d="M2805 2519 c-10 -15 3 -25 16 -12 7 7 7 13 1 17 -6 3 -14 1 -17 -5z"/>
<path d="M2970 2440 c-9 -6 -10 -10 -3 -10 6 0 15 5 18 10 8 12 4 12 -15 0z"/>
<path d="M1934 2065 c-4 -8 -11 -12 -17 -8 -6 3 -7 1 -3 -5 7 -12 18 -9 56 18
12 8 11 10 -8 10 -12 0 -25 -7 -28 -15z"/>
<path d="M2790 3215 c0 -8 2 -15 4 -15 2 0 6 7 10 15 3 8 1 15 -4 15 -6 0 -10
-7 -10 -15z"/>
<path d="M2860 3210 c-1 -8 -2 -22 -1 -31 3 -24 -26 -31 -53 -14 -21 14 -23
13 -34 -19 -7 -19 -19 -37 -27 -40 -20 -7 -19 1 5 32 13 16 17 29 11 35 -11
11 -73 -1 -65 -14 8 -13 -10 -11 -25 4 -10 10 -11 8 -5 -8 10 -29 33 -53 65
-69 24 -12 28 -12 33 1 5 13 18 14 71 8 61 -6 65 -5 65 14 0 26 -8 27 -26 4
-13 -17 -13 -17 -14 2 0 17 -2 17 -10 5 -8 -12 -10 -11 -10 6 0 13 10 25 27
33 16 7 23 15 16 19 -6 4 -13 16 -16 27 -3 13 -5 15 -7 5z m-120 -64 c0 -11
-19 -15 -25 -6 -3 5 1 10 9 10 9 0 16 -2 16 -4z"/>
<path d="M2335 3110 c-3 -5 -3 -15 1 -21 6 -11 23 6 24 24 0 10 -18 9 -25 -3z"/>
<path d="M2609 3103 c-8 -9 -13 -24 -11 -34 2 -13 -5 -18 -25 -21 -21 -2 -30
-11 -38 -34 -5 -17 -14 -31 -20 -32 -5 0 -11 -5 -13 -10 -2 -6 6 -8 17 -5 12
3 22 10 23 17 0 6 2 16 2 21 3 26 19 36 46 30 29 -6 39 5 46 52 3 29 -10 37
-27 16z"/>
<path d="M2370 3100 c0 -5 5 -10 10 -10 6 0 10 5 10 10 0 6 -4 10 -10 10 -5 0
-10 -4 -10 -10z"/>
<path d="M2776 3074 c-20 -20 -12 -34 19 -34 21 0 35 17 35 41 0 15 -37 10
-54 -7z m34 -9 c0 -8 -7 -15 -16 -15 -14 0 -14 3 -4 15 7 8 14 15 16 15 2 0 4
-7 4 -15z"/>
<path d="M2412 3020 c0 -19 2 -29 5 -22 9 23 25 12 19 -13 -4 -17 0 -31 14
-45 20 -20 20 -20 31 1 6 13 7 19 1 15 -20 -12 -42 5 -36 29 4 15 0 26 -9 32
-8 4 -17 15 -20 23 -3 8 -5 -1 -5 -20z"/>
<path d="M2660 3029 c0 -5 5 -7 10 -4 6 3 10 8 10 11 0 2 -4 4 -10 4 -5 0 -10
-5 -10 -11z"/>
<path d="M2675 3000 c4 -6 11 -8 16 -5 14 9 11 15 -7 15 -8 0 -12 -5 -9 -10z"/>
<path d="M2806 2992 c-9 -27 -5 -34 10 -24 7 4 8 16 4 27 -7 19 -7 19 -14 -3z"/>
<path d="M3465 2990 c-3 -5 -1 -10 4 -10 6 0 11 5 11 10 0 6 -2 10 -4 10 -3 0
-8 -4 -11 -10z"/>
<path d="M2640 2977 c0 -8 7 -14 15 -14 11 0 12 4 4 14 -6 7 -13 13 -15 13 -2
0 -4 -6 -4 -13z"/>
<path d="M2405 2969 c-4 -6 -5 -12 -2 -15 2 -3 7 2 10 11 7 17 1 20 -8 4z"/>
<path d="M2705 2970 c-3 -5 -1 -10 4 -10 6 0 11 5 11 10 0 6 -2 10 -4 10 -3 0
-8 -4 -11 -10z"/>
<path d="M2604 2939 c-4 -7 -3 -9 4 -5 5 3 13 0 15 -6 4 -9 6 -10 6 -1 1 17
-16 25 -25 12z"/>
<path d="M2725 2940 c-3 -5 -1 -10 4 -10 6 0 11 5 11 10 0 6 -2 10 -4 10 -3 0
-8 -4 -11 -10z"/>
<path d="M2570 2880 c0 -5 4 -10 9 -10 6 0 13 5 16 10 3 6 -1 10 -9 10 -9 0
-16 -4 -16 -10z"/>
<path d="M2107 2654 c-4 -21 -14 -52 -22 -68 -8 -15 -13 -32 -10 -36 3 -5 -3
-13 -12 -19 -10 -6 -13 -11 -7 -11 5 0 26 12 45 26 l34 26 -30 -7 c-28 -6 -29
-6 -13 12 25 28 38 70 29 95 -7 19 -9 17 -14 -18z"/>
<path d="M2135 2679 c-11 -17 1 -21 15 -4 8 9 8 15 2 15 -6 0 -14 -5 -17 -11z"/>
<path d="M3349 2673 c-8 -10 -44 -35 -79 -56 -36 -21 -74 -44 -84 -52 -33 -25
-11 -26 31 -3 127 73 153 91 153 109 0 23 -2 23 -21 2z"/>
<path d="M2287 2556 c-15 -14 -27 -29 -27 -34 0 -5 -9 -12 -20 -15 -11 -3 -20
-10 -20 -17 0 -6 13 -2 30 10 17 12 30 17 30 13 0 -17 -58 -65 -69 -58 -6 3
-9 10 -6 15 3 4 -5 6 -17 2 l-22 -5 24 -9 c22 -8 23 -9 4 -31 -15 -17 -15 -19
-2 -8 9 7 22 10 28 6 5 -3 10 1 10 10 0 12 8 16 28 15 57 -4 63 -2 50 20 -11
16 -9 22 7 36 17 13 17 15 3 10 -20 -6 -23 6 -7 36 16 30 6 31 -24 4z"/>
<path d="M2031 2484 c0 -11 3 -14 6 -6 3 7 2 16 -1 19 -3 4 -6 -2 -5 -13z"/>
<path d="M3430 2490 c-9 -5 -69 -12 -135 -15 -123 -6 -139 -10 -130 -26 8 -12
83 -11 183 3 63 8 85 16 93 30 11 20 10 21 -11 8z"/>
<path d="M2125 2460 c3 -5 -7 -18 -22 -30 -27 -21 -27 -21 12 1 22 12 41 23
43 24 1 2 -6 5 -18 8 -11 3 -18 1 -15 -3z"/>
<path d="M2090 2449 c0 -5 5 -7 10 -4 6 3 10 8 10 11 0 2 -4 4 -10 4 -5 0 -10
-5 -10 -11z"/>
<path d="M2140 2419 c0 -5 5 -7 10 -4 6 3 10 8 10 11 0 2 -4 4 -10 4 -5 0 -10
-5 -10 -11z"/>
<path d="M3428 2423 c6 -2 18 -2 25 0 6 3 1 5 -13 5 -14 0 -19 -2 -12 -5z"/>
<path d="M2034 2405 c-4 -8 -10 -13 -14 -10 -5 3 -11 1 -15 -5 -3 -5 -1 -10 5
-10 6 0 8 -5 5 -10 -4 -6 -12 -7 -18 -4 -7 4 -9 4 -5 -1 4 -4 -2 -15 -14 -25
-17 -14 -18 -17 -5 -17 10 0 15 2 13 5 -6 6 66 67 76 65 4 -2 8 4 8 12 0 19
-29 20 -36 0z"/>
<path d="M2046 2374 c-3 -7 5 -9 20 -6 13 2 24 7 24 11 0 11 -39 7 -44 -5z"/>
<path d="M2115 2370 c-16 -7 -17 -9 -3 -9 9 -1 20 4 23 9 7 11 7 11 -20 0z"/>
<path d="M3012 2325 c10 -23 10 -29 -3 -39 -9 -6 -21 -21 -27 -33 -11 -20 -10
-22 18 -21 43 1 63 -19 57 -61 -2 -20 -7 -45 -12 -56 -4 -11 -5 -17 0 -13 4 4
14 3 22 -3 10 -9 13 -8 13 1 0 8 2 11 5 8 8 -8 -6 -38 -17 -38 -5 0 -6 5 -3
10 3 6 -2 11 -12 11 -47 3 -63 -9 -63 -48 0 -18 6 -23 24 -23 14 0 28 6 33 13
5 7 10 -3 15 -28 3 -22 9 -49 11 -60 3 -11 6 -24 6 -28 1 -5 6 -5 13 -1 8 5 9
2 5 -10 -5 -13 -2 -17 10 -14 22 4 36 66 30 136 -3 39 0 52 10 52 7 0 13 -4
13 -8 0 -4 10 -8 21 -9 29 -2 37 -12 19 -23 -12 -8 -10 -10 8 -10 24 0 24 -1
12 78 0 1 -5 2 -11 2 -5 0 -8 -4 -5 -8 3 -5 -10 -9 -29 -10 -30 -1 -35 2 -36
21 -1 17 -3 14 -10 -10 -14 -48 -26 -40 -25 16 1 43 4 51 24 56 27 7 42 -1 42
-21 0 -9 -5 -12 -12 -8 -10 5 -10 4 -1 -6 6 -7 9 -19 6 -28 -4 -10 -2 -13 6
-8 6 4 10 15 9 24 -2 10 3 16 11 14 12 -3 12 -1 0 14 -13 16 -12 17 11 11 20
-5 15 3 -25 38 -58 51 -68 55 -55 20 6 -16 6 -25 0 -25 -6 0 -10 8 -10 18 0
24 -28 63 -73 102 l-38 33 13 -28z m108 -379 c0 -2 -7 -6 -15 -10 -8 -3 -15
-1 -15 4 0 6 7 10 15 10 8 0 15 -2 15 -4z"/>
<path d="M2120 2315 c-13 -14 -29 -25 -36 -25 -7 0 -16 -4 -19 -10 -3 -5 -1
-10 5 -10 11 0 90 69 79 70 -3 0 -16 -11 -29 -25z"/>
<path d="M2010 2320 c0 -5 5 -10 11 -10 5 0 7 5 4 10 -3 6 -8 10 -11 10 -2 0
-4 -4 -4 -10z"/>
<path d="M3367 2309 c7 -7 15 -10 18 -7 3 3 -2 9 -12 12 -14 6 -15 5 -6 -5z"/>
<path d="M2872 2276 c-17 -37 -15 -45 4 -18 8 12 14 27 12 33 -2 6 -9 -1 -16
-15z"/>
<path d="M1975 2279 c-4 -6 -5 -12 -2 -15 2 -3 7 2 10 11 7 17 1 20 -8 4z"/>
<path d="M1940 2269 c0 -5 -5 -7 -12 -3 -7 4 -8 3 -4 -5 6 -9 11 -9 22 0 17
14 18 19 4 19 -5 0 -10 -5 -10 -11z"/>
<path d="M3357 2240 c-4 -15 0 -20 13 -20 11 0 21 -4 25 -10 3 -5 12 -7 20 -4
20 8 9 24 -17 24 -17 0 -18 2 -8 15 10 12 9 15 -8 15 -11 0 -22 -8 -25 -20z"/>
<path d="M3330 2189 c0 -5 5 -7 10 -4 6 3 10 8 10 11 0 2 -4 4 -10 4 -5 0 -10
-5 -10 -11z"/>
<path d="M2803 2174 c-9 -24 19 -37 34 -17 10 13 10 18 0 25 -18 12 -27 10
-34 -8z"/>
<path d="M3235 2180 c-4 -7 3 -8 22 -4 38 9 42 14 10 14 -14 0 -29 -5 -32 -10z"/>
<path d="M2865 2120 c3 -5 8 -10 11 -10 2 0 4 5 4 10 0 6 -5 10 -11 10 -5 0
-7 -4 -4 -10z"/>
<path d="M3300 2115 c0 -11 42 -46 65 -55 17 -6 27 -5 35 5 9 11 7 13 -7 10
-10 -1 -27 5 -38 15 -20 17 -55 33 -55 25z"/>
<path d="M2162 2079 c-18 -12 -31 -23 -29 -25 7 -8 62 21 65 34 3 15 3 16 -36
-9z"/>
<path d="M3336 2026 c-10 -17 -12 -27 -5 -31 13 -9 15 -7 23 28 8 33 3 34 -18
3z"/>
<path d="M2358 2003 c6 -2 18 -2 25 0 6 3 1 5 -13 5 -14 0 -19 -2 -12 -5z"/>
<path d="M2098 1993 c7 -3 16 -2 19 1 4 3 -2 6 -13 5 -11 0 -14 -3 -6 -6z"/>
<path d="M2290 1989 c0 -5 5 -7 10 -4 6 3 10 8 10 11 0 2 -4 4 -10 4 -5 0 -10
-5 -10 -11z"/>
<path d="M1645 1970 c-12 -4 -27 -15 -35 -25 -10 -12 -5 -11 23 5 20 12 37 24
37 26 0 5 0 5 -25 -6z"/>
<path d="M2325 1970 c-3 -5 -1 -10 4 -10 6 0 11 5 11 10 0 6 -2 10 -4 10 -3 0
-8 -4 -11 -10z"/>
<path d="M2294 1962 c6 -10 1 -11 -21 -7 -27 6 -27 6 -9 -9 22 -17 50 -19 81
-6 18 8 18 9 -5 9 -15 1 -32 7 -39 14 -11 10 -12 9 -7 -1z"/>
<path d="M2610 1951 c0 -6 4 -13 10 -16 6 -3 7 1 4 9 -7 18 -14 21 -14 7z"/>
<path d="M2644 1928 c-3 -4 2 -8 11 -8 11 0 15 -5 12 -14 -3 -7 0 -19 6 -25 9
-9 9 -14 -1 -20 -10 -6 -9 -11 4 -22 16 -13 17 -11 12 19 -4 29 -2 33 14 29
10 -3 18 -1 18 5 0 6 16 8 43 4 23 -3 49 -2 57 4 12 8 9 10 -13 10 -16 0 -26
4 -22 10 3 6 2 10 -4 10 -5 0 -12 -6 -14 -12 -4 -10 -8 -10 -15 1 -5 7 -15 10
-21 7 -6 -4 -11 -3 -11 2 0 12 -69 12 -76 0z"/>
<path d="M2905 1900 c-3 -5 -17 -10 -31 -10 -13 0 -24 -5 -24 -11 0 -5 5 -7
10 -4 6 3 10 2 10 -3 0 -17 65 3 68 21 4 18 -23 24 -33 7z"/>
<path d="M2416 1884 c-8 -20 8 -25 29 -10 17 12 17 13 -3 18 -12 4 -23 0 -26
-8z"/>
<path d="M2528 1893 c7 -3 16 -2 19 1 4 3 -2 6 -13 5 -11 0 -14 -3 -6 -6z"/>
<path d="M2730 1880 c0 -5 5 -10 10 -10 6 0 10 5 10 10 0 6 -4 10 -10 10 -5 0
-10 -4 -10 -10z"/>
<path d="M1570 1855 c-11 -13 -10 -14 4 -9 9 3 16 10 16 15 0 13 -6 11 -20 -6z"/>
<path d="M2218 1853 c7 -3 16 -2 19 1 4 3 -2 6 -13 5 -11 0 -14 -3 -6 -6z"/>
<path d="M2700 1846 c0 -2 8 -10 18 -17 15 -13 16 -12 3 4 -13 16 -21 21 -21
13z"/>
<path d="M1655 1808 c-22 -11 -51 -29 -64 -39 -13 -10 -28 -16 -34 -12 -6 3
-7 1 -3 -5 7 -12 28 -7 63 16 12 7 28 10 34 6 7 -4 9 -3 5 4 -3 6 -2 13 4 17
5 3 10 0 10 -7 0 -10 2 -10 9 0 4 8 12 14 17 14 5 0 15 3 22 6 11 4 11 6 0 13
-17 11 -17 11 -63 -13z"/>
<path d="M2457 1812 c-26 -28 -20 -34 13 -17 17 9 28 20 25 25 -9 15 -20 12
-38 -8z"/>
<path d="M2948 1823 c6 -2 18 -2 25 0 6 3 1 5 -13 5 -14 0 -19 -2 -12 -5z"/>
<path d="M1470 1775 c-7 -9 -15 -14 -17 -11 -3 2 -21 -7 -40 -20 -19 -13 -39
-21 -44 -18 -5 3 -8 0 -7 -7 2 -6 -3 -14 -10 -16 -8 -3 -10 1 -5 13 3 9 2 15
-3 12 -184 -88 -180 -86 -141 -83 20 2 52 13 71 24 34 21 77 31 46 11 -8 -5
-11 -10 -6 -10 17 0 154 85 165 103 14 21 8 22 -9 2z"/>
<path d="M1208 1623 c7 -3 16 -2 19 1 4 3 -2 6 -13 5 -11 0 -14 -3 -6 -6z"/>
</g>
</svg>
